{
  "accessors": [
    {
      "bufferView": 0,
      "componentType": 5126,
      "count": 23196,
      "max": [
        970.7939453125,
        141.7491912841797,
        768.1427001953125
      ],
      "min": [
        -856.8416748046875,
        100.43773651123047,
        -1431.6776123046875
      ],
      "name": "positions",
      "type": "VEC3"
    },
    {
      "bufferView": 1,
      "componentType": 5125,
      "count": 126822,
      "name": "pos_index",
      "type": "SCALAR"
    },
    {
      "bufferView": 2,
      "componentType": 5126,
      "count": 23196,
      "name": "normals",
      "type": "VEC3"
    },
    {
      "bufferView": 3,
      "componentType": 5126,
      "count": 23196,
      "name": "uvs",
      "type": "VEC2"
    },
    {
      "bufferView": 4,
      "componentType": 5126,
      "count": 29447,
      "max": [
        901.4049682617188,
        1478.521728515625,
        908.4823608398438
      ],
      "min": [
        -979.6859741210938,
        -9.687044143676758,
        -1411.9937744140625
      ],
      "name": "positions",
      "type": "VEC3"
    },
    {
      "bufferView": 5,
      "componentType": 5125,
      "count": 126822,
      "name": "pos_index",
      "type": "SCALAR"
    },
    {
      "bufferView": 6,
      "componentType": 5126,
      "count": 29447,
      "name": "normals",
      "type": "VEC3"
    },
    {
      "bufferView": 7,
      "componentType": 5126,
      "count": 29447,
      "name": "uvs",
      "type": "VEC2"
    }
  ],
  "asset": {
    "version": "2.0"
  },
  "bufferViews": [
    {
      "buffer": 0,
      "byteLength": 278352,
      "name": "positions",
      "target": 34962
    },
    {
      "buffer": 1,
      "byteLength": 507288,
      "name": "pos_index",
      "target": 34963
    },
    {
      "buffer": 2,
      "byteLength": 278352,
      "name": "normals",
      "target": 34962
    },
    {
      "buffer": 3,
      "byteLength": 185568,
      "name": "uvs",
      "target": 34962
    },
    {
      "buffer": 4,
      "byteLength": 353364,
      "name": "positions",
      "target": 34962
    },
    {
      "buffer": 5,
      "byteLength": 507288,
      "name": "pos_index",
      "target": 34963
    },
    {
      "buffer": 6,
      "byteLength": 353364,
      "name": "normals",
      "target": 34962
    },
    {
      "buffer": 7,
      "byteLength": 235576,
      "name": "uvs",
      "target": 34962
    }
  ],
  "buffers": [
    {
      "byteLength": 278352,
      "name": "positions",
      "uri": "data:application/octet-stream;base64,"
    },
    {
      "byteLength": 507288,
      "name": "pos_index",
      "uri": "data:application/octet-stream;base64,"
    },
    {
      "byteLength": 278352,
      "name": "normals",
      "uri": "data:application/octet-stream;base64,"
    },
    {
      "byteLength": 185568,
      "name": "uvs",
      "uri": "data:application/octet-stream;base64,"
    },
    {
      "byteLength": 353364,
      "name": "positions",
      "uri": "data:application/octet-stream;base64,"
    },
    {
      "byteLength": 507288,
      "name": "pos_index",
      "uri": "data:application/octet-stream;base64,"
    },
    {
      "byteLength": 353364,
      "name": "normals",
      "uri": "data:application/octet-stream;base64,"
    },
    {
      "byteLength": 235576,
      "name": "uvs",
      "uri": "data:application/octet-stream;base64,"
    }
  ],
  "extensionsUsed": [
    "KHR_materials_transmission"
  ],
  "images": [
    {
      "uri": "model_0_color.png"
    },
    {
      "uri": "model_0_metallicRoughness.png"
    },
    {
      "uri": "model_0_transmittance.png"
    },
    {
      "uri": "model_1_color.png"
    },
    {
      "uri": "model_1_metallicRoughness.png"
    },
    {
      "uri": "model_1_transmittance.png"
    }
  ],
  "materials": [
    {
      "doubleSided": true,
      "extensions": {
        "KHR_materials_transmission": {
          "transmissionFactor": 1.0,
          "transmissionTexture": {
            "index": 2
          }
        }
      },
      "name": "WOODEN FLOOR",
      "pbrMetallicRoughness": {
        "baseColorTexture": {
          "index": 0
        },
        "metallicRoughnessTexture": {
          "index": 1
        }
      }
    },
    {
      "doubleSided": true,
      "extensions": {
        "KHR_materials_transmission": {
          "transmissionFactor": 1.0,
          "transmissionTexture": {
            "index": 5
          }
        }
      },
      "name": "Area (2)",
      "pbrMetallicRoughness": {
        "baseColorTexture": {
          "index": 3
        },
        "metallicRoughnessTexture": {
          "index": 4
        }
      }
    }
  ],
  "meshes": [
    {
      "name": "WOODEN FLOOR",
      "primitives": [
        {
          "attributes": {
            "NORMAL": 2,
            "POSITION": 0,
            "TEXCOORD_0": 3
          },
          "indices": 1,
          "material": 0,
          "mode": 4
        }
      ]
    },
    {
      "name": "Area (2)",
      "primitives": [
        {
          "attributes": {
            "NORMAL": 6,
            "POSITION": 4,
            "TEXCOORD_0": 7
          },
          "indices": 5,
          "material": 1,
          "mode": 4
        }
      ]
    }
  ],
  "nodes": [
    {
      "mesh": 0,
      "name": "WOODEN FLOOR"
    },
    {
      "mesh": 1,
      "name": "Area (2)"
    }
  ],
  "scene": 0,
  "scenes": [
    {
      "nodes": [
        0,
        1
      ]
    }
  ],
  "textures": [
    {
      "source": 0
    },
    {
      "source": 1
    },
    {
      "source": 2
    },
    {
      "source": 3
    },
    {
      "source": 4
    },
    {
      "source": 5
    }
  ]
}
