{
  "accessors": [
    {
      "bufferView": 0,
      "componentType": 5126,
      "count": 23431,
      "max": [
        -242.60940551757813,
        1474.1810302734375,
        112.70584869384766
      ],
      "min": [
        -400.23040771484375,
        1200.6578369140625,
        106.59158325195313
      ],
      "name": "positions",
      "type": "VEC3"
    },
    {
      "bufferView": 1,
      "componentType": 5125,
      "count": 126822,
      "name": "pos_index",
      "type": "SCALAR"
    },
    {
      "bufferView": 2,
      "componentType": 5126,
      "count": 23431,
      "name": "normals",
      "type": "VEC3"
    },
    {
      "bufferView": 3,
      "componentType": 5126,
      "count": 23431,
      "name": "uvs",
      "type": "VEC2"
    },
    {
      "bufferView": 4,
      "componentType": 5126,
      "count": 21686,
      "max": [
        -217.33978271484375,
        1502.3583984375,
        145.15390014648438
      ],
      "min": [
        -425.5001220703125,
        1135.449462890625,
        108.46405029296875
      ],
      "name": "positions",
      "type": "VEC3"
    },
    {
      "bufferView": 5,
      "componentType": 5125,
      "count": 126822,
      "name": "pos_index",
      "type": "SCALAR"
    },
    {
      "bufferView": 6,
      "componentType": 5126,
      "count": 21686,
      "name": "normals",
      "type": "VEC3"
    },
    {
      "bufferView": 7,
      "componentType": 5126,
      "count": 21686,
      "name": "uvs",
      "type": "VEC2"
    }
  ],
  "asset": {
    "version": "2.0"
  },
  "bufferViews": [
    {
      "buffer": 0,
      "byteLength": 281172,
      "name": "positions",
      "target": 34962
    },
    {
      "buffer": 1,
      "byteLength": 507288,
      "name": "pos_index",
      "target": 34963
    },
    {
      "buffer": 2,
      "byteLength": 281172,
      "name": "normals",
      "target": 34962
    },
    {
      "buffer": 3,
      "byteLength": 187448,
      "name": "uvs",
      "target": 34962
    },
    {
      "buffer": 4,
      "byteLength": 260232,
      "name": "positions",
      "target": 34962
    },
    {
      "buffer": 5,
      "byteLength": 507288,
      "name": "pos_index",
      "target": 34963
    },
    {
      "buffer": 6,
      "byteLength": 260232,
      "name": "normals",
      "target": 34962
    },
    {
      "buffer": 7,
      "byteLength": 173488,
      "name": "uvs",
      "target": 34962
    }
  ],
  "buffers": [
    {
      "byteLength": 281172,
      "name": "positions",
      "uri": "data:application/octet-stream;base64,"
    },
    {
      "byteLength": 507288,
      "name": "pos_index",
      "uri": "data:application/octet-stream;base64,"
    },
    {
      "byteLength": 281172,
      "name": "normals",
      "uri": "data:application/octet-stream;base64,"
    },
    {
      "byteLength": 187448,
      "name": "uvs",
      "uri": "data:application/octet-stream;base64,"
    },
    {
      "byteLength": 260232,
      "name": "positions",
      "uri": "data:application/octet-stream;base64,"
    },
    {
      "byteLength": 507288,
      "name": "pos_index",
      "uri": "data:application/octet-stream;base64,"
    },
    {
      "byteLength": 260232,
      "name": "normals",
      "uri": "data:application/octet-stream;base64,"
    },
    {
      "byteLength": 173488,
      "name": "uvs",
      "uri": "data:application/octet-stream;base64,"
    }
  ],
  "extensionsUsed": [
    "KHR_materials_transmission"
  ],
  "images": [
    {
      "uri": "model_1_color.png"
    },
    {
      "uri": "model_1_metallicRoughness.png"
    },
    {
      "uri": "model_1_transmittance.png"
    },
    {
      "uri": "model_2_color.png"
    },
    {
      "uri": "model_2_metallicRoughness.png"
    },
    {
      "uri": "model_2_transmittance.png"
    }
  ],
  "materials": [
    {
      "doubleSided": true,
      "extensions": {
        "KHR_materials_transmission": {
          "transmissionFactor": 1.0,
          "transmissionTexture": {
            "index": 2
          }
        }
      },
      "name": "Area (2)",
      "pbrMetallicRoughness": {
        "baseColorTexture": {
          "index": 0
        },
        "metallicRoughnessTexture": {
          "index": 1
        }
      }
    },
    {
      "doubleSided": true,
      "extensions": {
        "KHR_materials_transmission": {
          "transmissionFactor": 1.0,
          "transmissionTexture": {
            "index": 5
          }
        }
      },
      "name": "Area (3)",
      "pbrMetallicRoughness": {
        "baseColorTexture": {
          "index": 3
        },
        "metallicRoughnessTexture": {
          "index": 4
        }
      }
    }
  ],
  "meshes": [
    {
      "name": "Area (2)",
      "primitives": [
        {
          "attributes": {
            "NORMAL": 2,
            "POSITION": 0,
            "TEXCOORD_0": 3
          },
          "indices": 1,
          "material": 0,
          "mode": 4
        }
      ]
    },
    {
      "name": "Area (3)",
      "primitives": [
        {
          "attributes": {
            "NORMAL": 6,
            "POSITION": 4,
            "TEXCOORD_0": 7
          },
          "indices": 5,
          "material": 1,
          "mode": 4
        }
      ]
    }
  ],
  "nodes": [
    {
      "mesh": 0,
      "name": "Area (2)"
    },
    {
      "mesh": 1,
      "name": "Area (3)"
    }
  ],
  "scene": 0,
  "scenes": [
    {
      "nodes": [
        0,
        1
      ]
    }
  ],
  "textures": [
    {
      "source": 0
    },
    {
      "source": 1
    },
    {
      "source": 2
    },
    {
      "source": 3
    },
    {
      "source": 4
    },
    {
      "source": 5
    }
  ]
}
